<svg version="1.1" id="Layer_1" xmlns="http://www.w3.org/2000/svg" xmlns:xlink="http://www.w3.org/1999/xlink" x="0px" y="0px"
	 width="1000" viewBox="0 0 640 390" enable-background="new 0 0 640 390" xml:space="preserve">
<path fill="#000000" opacity="1.000000" stroke="none" 
	d="
M356.000000,391.000000 
	C237.362000,391.000000 119.223984,391.000000 1.042989,391.000000 
	C1.042989,261.060211 1.042989,131.120377 1.042989,1.090282 
	C214.221375,1.090282 427.442810,1.090282 640.832153,1.090282 
	C640.832153,130.999832 640.832153,260.999878 640.832153,391.000000 
	C546.120300,391.000000 451.310150,391.000000 356.000000,391.000000 
M386.005493,310.016479 
	C386.005493,310.016479 386.061157,310.062256 386.574615,309.940552 
	C386.736053,309.643188 386.897491,309.345856 387.001556,309.001221 
	C387.001556,309.001221 387.051941,309.055573 387.558746,308.922150 
	C387.729950,308.630768 387.901154,308.339417 388.025848,308.011749 
	C388.025848,308.011749 388.025940,308.070709 388.501923,307.932251 
	C388.808441,307.755341 388.988342,307.492035 389.513031,306.910950 
	C389.707672,306.627228 389.902313,306.343506 390.693298,305.992920 
	C391.151398,305.677460 391.609528,305.362000 392.641663,304.774963 
	C393.764465,303.526703 394.887238,302.278442 396.489258,300.863434 
	C396.705505,300.609772 396.921753,300.356110 397.743073,299.816040 
	C399.558319,297.675201 401.350769,295.514557 403.192444,293.396698 
	C417.828918,276.565430 426.323608,256.699738 428.690765,234.885529 
	C431.314514,210.706985 427.569763,187.302826 415.049774,165.660355 
	C400.750885,140.942719 380.666595,123.280991 353.715149,112.228012 
	C351.472443,111.797729 349.229767,111.367439 346.988708,111.007095 
	C346.988708,111.007095 347.058594,111.004051 346.759064,110.399010 
	C345.896912,110.250198 345.034790,110.101387 343.695465,109.299515 
	C337.942200,108.196503 332.223175,106.438110 326.428131,106.135704 
	C316.362396,105.610451 306.167694,105.194275 296.182495,106.230370 
	C288.067535,107.072418 280.180206,110.108543 271.403137,112.071709 
	C268.405640,113.311539 265.443695,114.647270 262.404724,115.775291 
	C245.447266,122.069550 232.514191,133.801804 220.737381,146.946182 
	C217.627380,150.417328 215.551407,154.814941 212.379990,159.142776 
	C210.816864,161.641357 209.088333,164.052658 207.716599,166.652237 
	C195.977661,188.898895 191.259720,212.596222 195.218826,237.429535 
	C199.477051,264.138824 211.360992,287.017395 231.727097,305.430389 
	C244.198502,316.705780 258.204407,324.876160 274.463013,330.756195 
	C276.944183,331.444855 279.425354,332.133484 282.731598,332.955444 
	C300.699341,337.140717 318.835571,337.573822 336.810211,333.770813 
	C353.773651,330.181824 369.589722,323.561523 383.083649,312.110687 
	C383.083649,312.110687 383.054626,312.046600 383.530151,311.887909 
	C383.831177,311.693848 384.002655,311.419006 384.531433,310.933838 
	C384.692017,310.884705 384.852600,310.835571 385.493774,310.821686 
	C385.805695,310.665314 385.992798,310.415466 386.005493,310.016479 
z"/>
<path fill="#2367AE" opacity="1.000000" stroke="none" 
	d="
M385.013184,310.786438 
	C384.852600,310.835571 384.692017,310.884705 384.110168,311.147461 
	C383.459167,311.572632 383.247742,311.801147 383.054626,312.046600 
	C383.054626,312.046600 383.083649,312.110687 382.670410,312.132935 
	C379.457367,313.142883 376.575714,313.946167 373.870819,315.147552 
	C352.539734,324.622009 330.356445,328.404419 307.301392,324.059509 
	C297.086487,322.134369 287.157745,318.690918 277.084900,315.588409 
	C277.059326,314.543762 277.047943,313.847412 277.298645,312.921265 
	C282.554413,309.438232 287.792267,306.493500 292.445648,302.810303 
	C295.032684,300.762634 297.538055,297.755402 298.470642,294.690826 
	C299.634064,290.867645 301.244537,288.641632 305.128479,287.675995 
	C310.714294,286.287201 314.213379,283.110870 315.430389,276.920013 
	C316.229004,272.857513 318.496368,268.784607 321.045837,265.430786 
	C325.667267,259.351257 324.631409,254.024277 317.469147,251.514252 
	C311.189178,249.313400 304.876984,247.173584 298.483276,245.340637 
	C295.042053,244.354095 293.346161,242.317230 292.048645,239.111221 
	C291.129364,236.839813 289.116089,233.432022 287.428101,233.333817 
	C281.276154,232.975906 278.144043,228.874893 274.548676,225.040771 
	C273.782715,224.223907 272.682617,223.407013 271.626862,223.224686 
	C262.964355,221.728729 254.924271,214.702988 245.431686,220.195312 
	C244.788315,220.567535 243.797607,220.376007 242.967850,220.383743 
	C237.247635,220.437103 236.187393,219.161026 235.617691,213.449341 
	C235.341736,210.682755 233.938492,208.035599 233.112823,205.313980 
	C232.692123,203.927246 232.007462,202.449036 232.159958,201.092896 
	C232.576965,197.384491 230.561829,196.856995 227.639938,197.025269 
	C221.657898,197.369812 221.510025,197.193024 222.563477,191.155396 
	C222.935196,189.024979 223.236969,186.858032 223.879257,184.804276 
	C225.179031,180.648132 230.072708,177.346924 234.731339,177.387894 
	C239.230499,177.427429 243.082443,178.343246 243.485886,184.000290 
	C243.551529,184.920975 244.634613,185.769104 245.900497,187.590393 
	C246.775192,185.424515 247.795929,184.131546 247.693741,182.934448 
	C247.270874,177.980789 249.496307,174.777405 253.541077,172.278641 
	C255.346344,171.163376 256.700073,169.340302 258.353699,167.951508 
	C261.446381,165.354141 264.759888,163.000992 267.700531,160.246307 
	C270.891663,157.256973 273.703156,153.866135 276.804749,150.775406 
	C277.916565,149.667480 279.284760,148.447250 280.725464,148.124496 
	C282.953278,147.625397 285.395203,148.130066 287.654114,147.711411 
	C291.557404,146.987961 292.768219,144.229446 291.866974,140.606659 
	C290.188904,133.861267 277.207825,130.377640 272.216278,135.199478 
	C270.286713,137.063446 268.118011,138.679840 265.912109,140.531708 
	C261.693542,132.554245 263.214630,128.435364 270.810669,126.989845 
	C274.063171,126.370903 277.632080,127.221886 281.029266,127.634834 
	C282.814667,127.851845 284.518097,128.863571 286.296539,128.992416 
	C290.245850,129.278549 296.059448,125.130684 296.012268,121.841705 
	C295.943237,117.024582 291.507507,116.784744 288.398560,116.321793 
	C284.010376,115.668358 279.449005,116.089821 274.965149,116.197289 
	C271.811951,116.272865 271.153625,114.865295 272.191925,112.171646 
	C280.180206,110.108543 288.067535,107.072418 296.182495,106.230370 
	C306.167694,105.194275 316.362396,105.610451 326.428131,106.135704 
	C332.223175,106.438110 337.942200,108.196503 344.184967,109.797905 
	C345.469177,110.532211 346.263885,110.768135 347.058594,111.004051 
	C347.058594,111.004051 346.988708,111.007095 347.108246,111.254303 
	C348.040314,113.255852 348.852875,115.010201 349.464172,116.943130 
	C349.011047,117.591049 348.759094,118.060371 348.317047,118.762421 
	C348.311340,120.444054 348.495758,121.892952 348.759888,123.611084 
	C348.997253,124.219429 349.154938,124.558540 349.347565,125.222382 
	C350.228088,126.737801 351.073669,127.928482 352.140808,129.323776 
	C353.098572,129.825577 353.834747,130.122787 354.816956,130.624115 
	C356.053986,131.167358 357.045044,131.506500 358.264191,132.003525 
	C358.950623,132.473831 359.408905,132.786240 360.016449,133.347107 
	C360.785522,134.032379 361.405396,134.469208 362.238586,135.248810 
	C362.668365,137.166443 362.884796,138.741333 362.811523,140.213104 
	C361.342499,140.013489 360.163177,139.916992 358.732422,139.758728 
	C358.137787,139.665726 357.794586,139.634491 357.238953,139.406326 
	C356.312408,138.972214 355.598297,138.735016 354.611877,138.352844 
	C353.969879,138.027695 353.600128,137.847534 353.074097,137.445221 
	C352.225769,137.169540 351.533752,137.116013 350.841766,137.062469 
	C351.071411,138.172974 351.301025,139.283478 351.641052,140.692657 
	C352.679321,141.804276 353.607269,142.617203 354.789734,143.646896 
	C356.725616,144.516525 358.406982,145.169388 360.102356,145.850342 
	C360.116302,145.878433 360.174286,145.902344 360.266968,146.200226 
	C361.169189,147.426315 361.978729,148.354538 362.954254,149.528290 
	C363.788361,150.498154 364.456421,151.222504 365.068604,152.297577 
	C364.880096,153.344727 364.747437,154.041153 364.247162,154.746582 
	C362.901947,154.831421 361.924377,154.907272 360.664856,155.110199 
	C357.469147,157.109436 358.386871,159.037308 360.410828,161.370010 
	C360.566315,162.568314 360.610413,163.376236 360.601562,164.452240 
	C361.567719,165.822098 362.586823,166.923889 363.911560,168.166931 
	C364.800964,168.642593 365.384766,168.977020 365.976868,169.739395 
	C366.049072,171.617218 366.113007,173.067078 366.123962,174.657135 
	C366.070953,174.797333 365.859100,175.009369 365.687714,175.115295 
	C365.333984,175.809250 365.151611,176.397278 365.018982,177.401123 
	C364.081055,180.556091 363.093384,183.295242 361.837280,186.231689 
	C361.086670,187.167999 360.604462,187.907013 360.220093,189.009552 
	C360.082642,190.589401 359.847382,191.805710 359.434937,193.179901 
	C359.159882,194.219803 359.061981,195.101837 359.007568,196.401978 
	C359.020782,198.219467 358.990448,199.618835 358.906616,201.198639 
	C359.075867,201.912964 359.298706,202.446884 359.719543,203.354263 
	C360.617737,212.138962 362.377563,220.052063 370.190582,225.433365 
	C371.022339,226.076218 371.676453,226.488846 372.630127,226.992004 
	C373.929840,227.805557 374.930054,228.528564 376.043030,229.484131 
	C377.101044,230.150543 378.046234,230.584366 379.334045,230.995850 
	C380.132080,231.012253 380.587524,231.051010 381.279297,231.171387 
	C382.341736,230.872528 383.167847,230.492065 384.213104,230.007706 
	C384.432251,229.903809 384.908417,229.811142 384.908417,229.811142 
	C384.908417,229.811142 385.390350,229.866501 385.809448,229.812561 
	C388.845825,228.767365 391.463074,227.776123 394.480103,226.719727 
	C397.233612,227.855286 399.587402,229.056000 402.136688,230.523376 
	C403.224335,232.866943 404.116486,234.943802 404.982117,237.454407 
	C404.904938,239.625610 404.854248,241.363083 404.682373,243.428223 
	C404.970276,245.833069 405.379395,247.910263 405.858612,250.325287 
	C405.926300,251.122238 405.923859,251.581345 405.777283,252.417847 
	C405.475861,256.027557 405.318604,259.259857 405.081818,262.813110 
	C404.245758,264.758728 403.489197,266.383423 402.541260,268.153381 
	C402.156647,269.163239 401.963379,270.027802 401.749329,271.256165 
	C401.599518,272.086823 401.470551,272.553741 401.120361,273.219421 
	C400.171417,275.901001 399.443634,278.383850 398.703857,281.202728 
	C398.373383,282.367249 398.054901,283.195709 397.494263,284.244141 
	C395.690948,288.838837 391.263763,292.723541 395.117676,298.217834 
	C395.533356,298.962433 395.770355,299.482727 396.003967,300.259857 
	C396.003723,300.687836 396.006897,300.859039 396.010071,301.030212 
	C394.887238,302.278442 393.764465,303.526703 392.094727,305.012024 
	C391.064178,305.519287 390.580566,305.789520 390.096954,306.059753 
	C389.902313,306.343506 389.707672,306.627228 389.098053,307.166748 
	C388.447662,307.621979 388.228607,307.838043 388.025940,308.070709 
	C388.025940,308.070709 388.025848,308.011749 387.868683,308.187469 
	C387.478241,308.581238 387.258392,308.812042 387.051941,309.055573 
	C387.051941,309.055573 387.001556,309.001221 386.856750,309.187286 
	C386.484161,309.592682 386.267242,309.822327 386.061157,310.062256 
	C386.061157,310.062256 386.005493,310.016479 385.844177,310.144684 
	C385.446777,310.427277 385.223541,310.598450 385.013184,310.786438 
z"/>
<path fill="#32993B" opacity="1.000000" stroke="none" 
	d="
M271.797546,112.121674 
	C271.153625,114.865295 271.811951,116.272865 274.965149,116.197289 
	C279.449005,116.089821 284.010376,115.668358 288.398560,116.321793 
	C291.507507,116.784744 295.943237,117.024582 296.012268,121.841705 
	C296.059448,125.130684 290.245850,129.278549 286.296539,128.992416 
	C284.518097,128.863571 282.814667,127.851845 281.029266,127.634834 
	C277.632080,127.221886 274.063171,126.370903 270.810669,126.989845 
	C263.214630,128.435364 261.693542,132.554245 265.912109,140.531708 
	C268.118011,138.679840 270.286713,137.063446 272.216278,135.199478 
	C277.207825,130.377640 290.188904,133.861267 291.866974,140.606659 
	C292.768219,144.229446 291.557404,146.987961 287.654114,147.711411 
	C285.395203,148.130066 282.953278,147.625397 280.725464,148.124496 
	C279.284760,148.447250 277.916565,149.667480 276.804749,150.775406 
	C273.703156,153.866135 270.891663,157.256973 267.700531,160.246307 
	C264.759888,163.000992 261.446381,165.354141 258.353699,167.951508 
	C256.700073,169.340302 255.346344,171.163376 253.541077,172.278641 
	C249.496307,174.777405 247.270874,177.980789 247.693741,182.934448 
	C247.795929,184.131546 246.775192,185.424515 245.900497,187.590393 
	C244.634613,185.769104 243.551529,184.920975 243.485886,184.000290 
	C243.082443,178.343246 239.230499,177.427429 234.731339,177.387894 
	C230.072708,177.346924 225.179031,180.648132 223.879257,184.804276 
	C223.236969,186.858032 222.935196,189.024979 222.563477,191.155396 
	C221.510025,197.193024 221.657898,197.369812 227.639938,197.025269 
	C230.561829,196.856995 232.576965,197.384491 232.159958,201.092896 
	C232.007462,202.449036 232.692123,203.927246 233.112823,205.313980 
	C233.938492,208.035599 235.341736,210.682755 235.617691,213.449341 
	C236.187393,219.161026 237.247635,220.437103 242.967850,220.383743 
	C243.797607,220.376007 244.788315,220.567535 245.431686,220.195312 
	C254.924271,214.702988 262.964355,221.728729 271.626862,223.224686 
	C272.682617,223.407013 273.782715,224.223907 274.548676,225.040771 
	C278.144043,228.874893 281.276154,232.975906 287.428101,233.333817 
	C289.116089,233.432022 291.129364,236.839813 292.048645,239.111221 
	C293.346161,242.317230 295.042053,244.354095 298.483276,245.340637 
	C304.876984,247.173584 311.189178,249.313400 317.469147,251.514252 
	C324.631409,254.024277 325.667267,259.351257 321.045837,265.430786 
	C318.496368,268.784607 316.229004,272.857513 315.430389,276.920013 
	C314.213379,283.110870 310.714294,286.287201 305.128479,287.675995 
	C301.244537,288.641632 299.634064,290.867645 298.470642,294.690826 
	C297.538055,297.755402 295.032684,300.762634 292.445648,302.810303 
	C287.792267,306.493500 282.554413,309.438232 277.018524,313.136017 
	C276.618500,316.773438 276.760651,319.966370 277.084991,323.423492 
	C278.604187,324.753693 279.941193,325.819672 281.224213,327.212708 
	C278.501282,331.922119 276.385620,326.730530 273.705261,326.886993 
	C271.183197,323.318726 268.903168,319.985779 266.883850,316.799011 
	C268.016754,317.232605 268.888885,317.520050 269.761017,317.807495 
	C270.144409,317.626495 270.527802,317.445526 270.911194,317.264557 
	C262.536041,305.977783 264.775513,292.746338 262.916504,280.253296 
	C262.533569,277.679718 261.164856,274.742310 259.297943,272.983978 
	C248.266525,262.593842 241.780731,250.572617 243.947189,234.900925 
	C244.205139,233.035019 243.619110,231.052429 243.424286,229.123932 
	C241.898499,235.509888 241.277451,241.764053 241.145813,248.028503 
	C241.099335,250.239777 241.713425,252.846252 242.949020,254.634460 
	C247.360901,261.019379 252.241745,267.077972 256.788208,273.373383 
	C258.382599,275.581085 260.612701,278.083771 260.684235,280.506866 
	C260.997803,291.125366 260.759216,301.751343 263.665619,311.876251 
	C262.726349,310.953400 262.022278,310.223816 261.283508,309.239868 
	C261.133545,308.663757 261.018311,308.342072 260.890350,307.701660 
	C260.568024,306.601074 260.258423,305.819183 259.932922,304.650391 
	C259.767517,303.505768 259.617981,302.748016 259.544128,301.635498 
	C259.363098,299.892609 259.106323,298.504486 258.847473,296.644684 
	C258.589935,292.112213 258.334503,288.051392 258.193359,283.647461 
	C257.993591,281.740631 257.679596,280.176971 257.186920,278.334900 
	C252.904755,273.725372 248.698563,269.486084 244.720703,265.042450 
	C238.001648,257.536652 235.313889,248.805054 237.305649,238.798737 
	C237.823700,236.196030 238.456711,233.613754 238.895599,230.998398 
	C239.487091,227.473663 238.344818,224.620651 234.855560,223.377258 
	C230.846024,221.948486 229.333588,218.827759 227.503403,215.287109 
	C225.473434,211.359940 222.553986,207.292282 218.945282,204.931290 
	C214.292694,201.887344 210.747238,198.878036 210.638336,192.592957 
	C211.495743,181.016083 212.248184,169.901611 213.000610,158.787140 
	C215.551407,154.814941 217.627380,150.417328 220.737381,146.946182 
	C232.514191,133.801804 245.447266,122.069550 262.404724,115.775291 
	C265.443695,114.647270 268.405640,113.311539 271.797546,112.121674 
M224.148880,151.330887 
	C233.891266,142.239532 243.633652,133.148163 253.129837,124.286560 
	C244.856430,125.889969 223.086426,145.422485 221.510437,153.237579 
	C222.390594,152.642212 223.047653,152.197739 224.148880,151.330887 
M256.916779,121.948700 
	C256.916779,121.948700 257.087372,122.080391 257.087372,122.080391 
	C257.087372,122.080391 256.983704,121.893356 256.916779,121.948700 
M218.478729,156.509781 
	C218.478729,156.509781 218.515244,156.499451 218.478729,156.509781 
z"/>
<path fill="#33993A" opacity="1.000000" stroke="none" 
	d="
M354.570953,130.419998 
	C353.834747,130.122787 353.098572,129.825577 352.079041,129.001511 
	C350.968018,127.282310 350.140289,126.089981 349.312592,124.897644 
	C349.154938,124.558540 348.997253,124.219429 348.804871,123.129829 
	C348.682526,121.096123 348.594849,119.812904 348.507172,118.529686 
	C348.759094,118.060371 349.011047,117.591049 349.805237,116.882271 
	C351.610931,115.382835 352.874329,114.122856 354.137726,112.862869 
	C380.666595,123.280991 400.750885,140.942719 415.049774,165.660355 
	C427.569763,187.302826 431.314514,210.706985 428.690765,234.885529 
	C426.323608,256.699738 417.828918,276.565430 403.192444,293.396698 
	C401.350769,295.514557 399.558319,297.675201 397.160065,299.915466 
	C396.387146,300.010956 396.197266,300.007019 396.007355,300.003052 
	C395.770355,299.482727 395.533356,298.962433 395.116516,297.803528 
	C395.869904,292.784668 396.803162,288.404419 397.736389,284.024170 
	C398.054901,283.195709 398.373383,282.367249 398.914368,280.924011 
	C399.871735,277.879669 400.606659,275.450165 401.341553,273.020630 
	C401.470551,272.553741 401.599518,272.086823 401.934387,271.004822 
	C402.337738,269.595856 402.535217,268.801971 402.732666,268.008087 
	C403.489197,266.383423 404.245758,264.758728 405.342865,262.524963 
	C405.762787,258.624084 405.842102,255.332260 405.921417,252.040436 
	C405.923859,251.581345 405.926300,251.122238 405.909546,249.924835 
	C405.528107,247.157883 405.165833,245.129227 404.803528,243.100571 
	C404.854248,241.363083 404.904938,239.625610 405.237610,237.213531 
	C405.977173,234.476761 406.434692,232.414581 406.995209,229.888214 
	C404.546783,230.066727 403.243988,230.161713 401.941162,230.256699 
	C399.587402,229.056000 397.233612,227.855286 394.169708,226.661591 
	C390.769836,227.734589 388.080078,228.800537 385.390350,229.866486 
	C385.390350,229.866501 384.908417,229.811142 384.908417,229.811142 
	C384.908417,229.811142 384.432251,229.903809 383.898865,230.027283 
	C382.591309,230.463776 381.817139,230.776779 381.042938,231.089783 
	C380.587524,231.051010 380.132080,231.012253 379.127747,230.776245 
	C377.695984,230.136536 376.813110,229.694046 375.930237,229.251572 
	C374.930054,228.528564 373.929840,227.805557 372.450073,226.755219 
	C371.317963,226.019638 370.665436,225.611389 370.012939,225.203140 
	C362.377563,220.052063 360.617737,212.138962 359.726379,203.093964 
	C359.343506,201.979538 359.151825,201.498871 358.960144,201.018219 
	C358.990448,199.618835 359.020782,198.219467 359.156952,196.129578 
	C359.379242,194.633408 359.495697,193.827713 359.612122,193.022034 
	C359.847382,191.805710 360.082642,190.589401 360.507324,188.826019 
	C361.166412,187.530777 361.636047,186.782578 362.105713,186.034393 
	C363.093384,183.295242 364.081055,180.556091 365.174683,177.175720 
	C365.473480,176.026123 365.666290,175.517746 365.859100,175.009369 
	C365.859100,175.009369 366.070953,174.797333 366.395691,174.457443 
	C367.465515,172.780807 368.210602,171.444046 368.955658,170.107285 
	C367.959961,169.841995 366.964294,169.576721 365.968597,169.311447 
	C365.384766,168.977020 364.800964,168.642593 363.791107,167.892700 
	C362.461548,166.379562 361.558044,165.281860 360.654541,164.184174 
	C360.610413,163.376236 360.566315,162.568314 360.458313,161.039246 
	C360.578583,158.539780 360.762665,156.761444 360.946777,154.983109 
	C361.924377,154.907272 362.901947,154.831421 364.512054,154.694321 
	C365.137878,153.737656 365.131165,152.842270 365.124481,151.946869 
	C364.456421,151.222504 363.788361,150.498154 362.897278,149.206055 
	C361.840973,147.726303 361.007629,146.814331 360.174286,145.902344 
	C360.174286,145.902344 360.116302,145.878433 359.908447,145.575775 
	C357.978790,144.658768 356.256989,144.044434 354.535217,143.430115 
	C353.607269,142.617203 352.679321,141.804276 351.845825,140.345123 
	C352.370300,139.021729 352.800354,138.344559 353.230408,137.667374 
	C353.600128,137.847534 353.969879,138.027695 354.813385,138.555206 
	C356.008575,139.136108 356.729950,139.369690 357.451355,139.603256 
	C357.794586,139.634491 358.137787,139.665726 358.935181,139.959015 
	C360.626617,140.252792 361.863922,140.284500 363.101227,140.316208 
	C362.884796,138.741333 362.668365,137.166443 362.095032,134.996948 
	C361.114441,133.967758 360.490814,133.533218 359.867218,133.098663 
	C359.408905,132.786240 358.950623,132.473831 358.053894,131.756027 
	C356.600647,131.040421 355.585785,130.730209 354.570953,130.419998 
M394.979767,157.769485 
	C389.932281,158.353653 385.345886,157.269913 380.846924,154.785614 
	C379.781433,154.197220 376.348145,155.527145 375.843109,156.740250 
	C374.362335,160.297287 373.807831,164.239929 372.579132,169.318466 
	C376.447906,168.115677 379.149384,166.852570 381.957123,166.538177 
	C384.161163,166.291382 387.311554,166.417801 388.630615,167.762466 
	C393.966522,173.201904 398.975769,173.732346 404.598663,170.207352 
	C406.922180,168.750732 409.475372,167.909454 408.442474,164.330048 
	C407.486633,161.017807 405.582642,159.385254 401.985901,159.372192 
	C399.905914,159.364639 397.829010,158.519608 394.979767,157.769485 
M423.920715,221.237030 
	C421.695770,234.964050 419.470795,248.691071 417.232910,262.416138 
	C427.354340,248.516937 428.565186,193.823349 418.963043,182.846695 
	C420.216309,189.056732 421.786682,195.184204 422.615723,201.410385 
	C423.447266,207.655624 423.539429,213.999298 423.920715,221.237030 
M411.496857,253.105484 
	C411.496857,246.355331 411.496857,239.605179 411.496857,232.855011 
	C410.898254,232.819916 410.299652,232.784805 409.701050,232.749695 
	C409.303925,237.866638 408.721375,242.977768 408.561066,248.102112 
	C408.396332,253.368118 409.630829,258.873993 408.482361,263.867706 
	C406.704590,271.597809 403.405731,278.976074 400.791931,286.517426 
	C400.172729,288.304016 399.712708,290.145813 399.179474,291.962219 
	C399.602631,292.134399 400.025787,292.306610 400.448944,292.478790 
	C401.150848,291.117828 402.027283,289.817596 402.525604,288.385773 
	C405.258057,280.535126 408.126617,272.719238 410.462128,264.748932 
	C411.462555,261.334839 411.287384,257.576294 411.496857,253.105484 
M363.452332,191.182663 
	C363.151489,196.093567 362.850647,201.004486 362.549835,205.915390 
	C362.909729,205.890701 363.269623,205.866028 363.629517,205.841339 
	C365.715424,196.734604 367.801300,187.627853 369.887207,178.521118 
	C369.730804,178.513031 369.574402,178.504944 369.417969,178.496857 
	C367.548462,182.494781 365.678925,186.492706 363.452332,191.182663 
M392.777832,140.622742 
	C388.240936,136.514297 383.704041,132.405838 379.167145,128.297394 
	C378.738739,128.798889 378.310364,129.300369 377.881989,129.801865 
	C382.574677,133.818176 387.264465,137.837952 391.992462,141.812256 
	C392.052795,141.862976 392.600555,141.333817 392.777832,140.622742 
M374.522095,173.489075 
	C374.522095,173.489075 374.483459,173.499496 374.522095,173.489075 
M400.510681,149.522934 
	C400.510681,149.522934 400.499969,149.484589 400.510681,149.522934 
z"/>
<path fill="#1E5DA1" opacity="1.000000" stroke="none" 
	d="
M266.623108,316.652832 
	C268.903168,319.985779 271.183197,323.318726 273.711273,327.270325 
	C273.979645,328.658875 273.999939,329.428802 274.020264,330.198700 
	C258.204407,324.876160 244.198502,316.705780 231.727097,305.430389 
	C211.360992,287.017395 199.477051,264.138824 195.218826,237.429535 
	C191.259720,212.596222 195.977661,188.898895 207.716599,166.652237 
	C209.088333,164.052658 210.816864,161.641357 212.690308,158.964966 
	C212.248184,169.901611 211.495743,181.016083 210.407318,192.832153 
	C209.391174,195.877075 208.047470,198.248337 208.144775,200.558945 
	C208.584732,211.007462 208.360779,221.646133 210.332916,231.837631 
	C216.332153,262.840240 232.797195,287.278656 259.100403,305.324890 
	C259.756805,306.419037 260.329926,307.219696 260.903076,308.020355 
	C261.018311,308.342072 261.133545,308.663757 261.300598,309.597015 
	C262.171112,311.494141 262.989777,312.779694 264.038116,314.315308 
	C265.127960,315.266296 265.988129,315.967255 266.795380,316.615112 
	C266.742462,316.561951 266.623108,316.652832 266.623108,316.652832 
z"/>
<path fill="#1E5DA1" opacity="1.000000" stroke="none" 
	d="
M281.278198,326.885681 
	C279.941193,325.819672 278.604187,324.753693 277.109222,322.970490 
	C277.000549,320.147736 277.049805,318.042236 277.099091,315.936707 
	C287.157745,318.690918 297.086487,322.134369 307.301392,324.059509 
	C330.356445,328.404419 352.539734,324.622009 373.870819,315.147552 
	C376.575714,313.946167 379.457367,313.142883 382.638245,312.147156 
	C369.589722,323.561523 353.773651,330.181824 336.810211,333.770813 
	C318.835571,337.573822 300.699341,337.140717 282.435638,332.598145 
	C281.852509,330.455780 281.565369,328.670715 281.278198,326.885681 
z"/>
<path fill="#216884" opacity="1.000000" stroke="none" 
	d="
M281.224213,327.212708 
	C281.565369,328.670715 281.852509,330.455780 282.023071,332.531464 
	C279.425354,332.133484 276.944183,331.444855 274.241638,330.477448 
	C273.999939,329.428802 273.979645,328.658875 273.953308,327.505646 
	C276.385620,326.730530 278.501282,331.922119 281.224213,327.212708 
z"/>
<path fill="#338C62" opacity="1.000000" stroke="none" 
	d="
M353.926453,112.545441 
	C352.874329,114.122856 351.610931,115.382835 350.006470,116.703674 
	C348.852875,115.010201 348.040314,113.255852 347.107422,111.219330 
	C349.229767,111.367439 351.472443,111.797729 353.926453,112.545441 
z"/>
<path fill="#338C62" opacity="1.000000" stroke="none" 
	d="
M346.908813,110.701530 
	C346.263885,110.768135 345.469177,110.532211 344.423553,110.124435 
	C345.034790,110.101387 345.896912,110.250198 346.908813,110.701530 
z"/>
<path fill="#246AA5" opacity="1.000000" stroke="none" 
	d="
M390.395142,306.026337 
	C390.580566,305.789520 391.064178,305.519287 391.807709,305.147827 
	C391.609528,305.362000 391.151398,305.677460 390.395142,306.026337 
z"/>
<path fill="#1E5DA1" opacity="1.000000" stroke="none" 
	d="
M388.263916,308.001465 
	C388.228607,307.838043 388.447662,307.621979 388.862305,307.282410 
	C388.988342,307.492035 388.808441,307.755341 388.263916,308.001465 
z"/>
<path fill="#1E5DA1" opacity="1.000000" stroke="none" 
	d="
M387.305359,308.988861 
	C387.258392,308.812042 387.478241,308.581238 387.891937,308.205627 
	C387.901154,308.339417 387.729950,308.630768 387.305359,308.988861 
z"/>
<path fill="#1E5DA1" opacity="1.000000" stroke="none" 
	d="
M386.317871,310.001404 
	C386.267242,309.822327 386.484161,309.592682 386.885437,309.210938 
	C386.897491,309.345856 386.736053,309.643188 386.317871,310.001404 
z"/>
<path fill="#1E5DA1" opacity="1.000000" stroke="none" 
	d="
M385.253479,310.804077 
	C385.223541,310.598450 385.446777,310.427277 385.868958,310.172516 
	C385.992798,310.415466 385.805695,310.665314 385.253479,310.804077 
z"/>
<path fill="#1E5DA1" opacity="1.000000" stroke="none" 
	d="
M383.292389,311.967255 
	C383.247742,311.801147 383.459167,311.572632 383.866730,311.212219 
	C384.002655,311.419006 383.831177,311.693848 383.292389,311.967255 
z"/>
<path fill="#246AA5" opacity="1.000000" stroke="none" 
	d="
M396.003967,300.259857 
	C396.197266,300.007019 396.387146,300.010956 396.857544,300.058655 
	C396.921753,300.356110 396.705505,300.609772 396.249664,300.946838 
	C396.006897,300.859039 396.003723,300.687836 396.003967,300.259857 
z"/>
<path fill="#246AA5" opacity="1.000000" stroke="none" 
	d="
M397.494263,284.244141 
	C396.803162,288.404419 395.869904,292.784668 394.937836,297.579224 
	C391.263763,292.723541 395.690948,288.838837 397.494263,284.244141 
z"/>
<path fill="#246AA5" opacity="1.000000" stroke="none" 
	d="
M402.136688,230.523376 
	C403.243988,230.161713 404.546783,230.066727 406.995209,229.888214 
	C406.434692,232.414581 405.977173,234.476761 405.264099,236.779816 
	C404.116486,234.943802 403.224335,232.866943 402.136688,230.523376 
z"/>
<path fill="#246AA5" opacity="1.000000" stroke="none" 
	d="
M405.777283,252.417847 
	C405.842102,255.332260 405.762787,258.624084 405.422394,262.204041 
	C405.318604,259.259857 405.475861,256.027557 405.777283,252.417847 
z"/>
<path fill="#216884" opacity="1.000000" stroke="none" 
	d="
M277.084900,315.588409 
	C277.049805,318.042236 277.000549,320.147736 276.927032,322.706268 
	C276.760651,319.966370 276.618500,316.773438 276.756409,313.365784 
	C277.047943,313.847412 277.059326,314.543762 277.084900,315.588409 
z"/>
<path fill="#246AA5" opacity="1.000000" stroke="none" 
	d="
M385.809448,229.812561 
	C388.080078,228.800537 390.769836,227.734589 393.769958,226.726746 
	C391.463074,227.776123 388.845825,228.767365 385.809448,229.812561 
z"/>
<path fill="#246AA5" opacity="1.000000" stroke="none" 
	d="
M365.976868,169.739395 
	C366.964294,169.576721 367.959961,169.841995 368.955658,170.107285 
	C368.210602,171.444046 367.465515,172.780807 366.448669,174.317261 
	C366.113007,173.067078 366.049072,171.617218 365.976868,169.739395 
z"/>
<path fill="#246AA5" opacity="1.000000" stroke="none" 
	d="
M401.120361,273.219421 
	C400.606659,275.450165 399.871735,277.879669 398.926361,280.587952 
	C399.443634,278.383850 400.171417,275.901001 401.120361,273.219421 
z"/>
<path fill="#246AA5" opacity="1.000000" stroke="none" 
	d="
M404.682343,243.428223 
	C405.165833,245.129227 405.528107,247.157883 405.839417,249.586990 
	C405.379395,247.910263 404.970276,245.833069 404.682343,243.428223 
z"/>
<path fill="#246AA5" opacity="1.000000" stroke="none" 
	d="
M360.664856,155.110199 
	C360.762665,156.761444 360.578583,158.539780 360.346954,160.648895 
	C358.386871,159.037308 357.469147,157.109436 360.664856,155.110199 
z"/>
<path fill="#338C62" opacity="1.000000" stroke="none" 
	d="
M353.074097,137.445221 
	C352.800354,138.344559 352.370300,139.021729 351.735474,140.046448 
	C351.301025,139.283478 351.071411,138.172974 350.841766,137.062469 
	C351.533752,137.116013 352.225769,137.169540 353.074097,137.445221 
z"/>
<path fill="#246AA5" opacity="1.000000" stroke="none" 
	d="
M360.601562,164.452240 
	C361.558044,165.281860 362.461548,166.379562 363.485535,167.751465 
	C362.586823,166.923889 361.567719,165.822098 360.601562,164.452240 
z"/>
<path fill="#338C62" opacity="1.000000" stroke="none" 
	d="
M354.789734,143.646896 
	C356.256989,144.044434 357.978790,144.658768 359.894470,145.547668 
	C358.406982,145.169388 356.725616,144.516525 354.789734,143.646896 
z"/>
<path fill="#338C62" opacity="1.000000" stroke="none" 
	d="
M362.811523,140.213104 
	C361.863922,140.284500 360.626617,140.252792 359.186584,140.020782 
	C360.163177,139.916992 361.342499,140.013489 362.811523,140.213104 
z"/>
<path fill="#338C62" opacity="1.000000" stroke="none" 
	d="
M349.347565,125.222382 
	C350.140289,126.089981 350.968018,127.282310 351.857483,128.796906 
	C351.073669,127.928482 350.228088,126.737801 349.347565,125.222382 
z"/>
<path fill="#338C62" opacity="1.000000" stroke="none" 
	d="
M348.317047,118.762421 
	C348.594849,119.812904 348.682526,121.096123 348.725189,122.860596 
	C348.495758,121.892952 348.311340,120.444054 348.317047,118.762421 
z"/>
<path fill="#246AA5" opacity="1.000000" stroke="none" 
	d="
M376.043030,229.484131 
	C376.813110,229.694046 377.695984,230.136536 378.785156,230.798615 
	C378.046234,230.584366 377.101044,230.150543 376.043030,229.484131 
z"/>
<path fill="#338C62" opacity="1.000000" stroke="none" 
	d="
M360.266968,146.200226 
	C361.007629,146.814331 361.840973,147.726303 362.731262,148.960526 
	C361.978729,148.354538 361.169189,147.426315 360.266968,146.200226 
z"/>
<path fill="#338C62" opacity="1.000000" stroke="none" 
	d="
M365.068604,152.297577 
	C365.131165,152.842270 365.137878,153.737656 364.879700,154.685318 
	C364.747437,154.041153 364.880096,153.344727 365.068604,152.297577 
z"/>
<path fill="#246AA5" opacity="1.000000" stroke="none" 
	d="
M402.541290,268.153381 
	C402.535217,268.801971 402.337738,269.595856 401.955200,270.641052 
	C401.963379,270.027802 402.156647,269.163239 402.541290,268.153381 
z"/>
<path fill="#338C62" opacity="1.000000" stroke="none" 
	d="
M354.816956,130.624115 
	C355.585785,130.730209 356.600647,131.040421 357.825775,131.598145 
	C357.045044,131.506500 356.053986,131.167358 354.816956,130.624115 
z"/>
<path fill="#246AA5" opacity="1.000000" stroke="none" 
	d="
M359.434937,193.179901 
	C359.495697,193.827713 359.379242,194.633408 359.113464,195.711472 
	C359.061981,195.101837 359.159882,194.219803 359.434937,193.179901 
z"/>
<path fill="#246AA5" opacity="1.000000" stroke="none" 
	d="
M381.279297,231.171387 
	C381.817139,230.776779 382.591309,230.463776 383.679718,230.131180 
	C383.167847,230.492065 382.341736,230.872528 381.279297,231.171387 
z"/>
<path fill="#246AA5" opacity="1.000000" stroke="none" 
	d="
M370.190582,225.433365 
	C370.665436,225.611389 371.317963,226.019638 372.150513,226.664673 
	C371.676453,226.488846 371.022339,226.076218 370.190582,225.433365 
z"/>
<path fill="#246AA5" opacity="1.000000" stroke="none" 
	d="
M358.906616,201.198639 
	C359.151825,201.498871 359.343506,201.979538 359.528351,202.720490 
	C359.298706,202.446884 359.075867,201.912964 358.906616,201.198639 
z"/>
<path fill="#338C62" opacity="1.000000" stroke="none" 
	d="
M360.016449,133.347107 
	C360.490814,133.533218 361.114441,133.967758 361.881653,134.654175 
	C361.405396,134.469208 360.785522,134.032379 360.016449,133.347107 
z"/>
<path fill="#246AA5" opacity="1.000000" stroke="none" 
	d="
M361.837280,186.231689 
	C361.636047,186.782578 361.166412,187.530777 360.409515,188.462494 
	C360.604462,187.907013 361.086670,187.167999 361.837280,186.231689 
z"/>
<path fill="#338C62" opacity="1.000000" stroke="none" 
	d="
M357.238953,139.406326 
	C356.729950,139.369690 356.008575,139.136108 355.085693,138.700180 
	C355.598297,138.735016 356.312408,138.972214 357.238953,139.406326 
z"/>
<path fill="#246AA5" opacity="1.000000" stroke="none" 
	d="
M365.687714,175.115295 
	C365.666290,175.517746 365.473480,176.026123 365.124969,176.759888 
	C365.151611,176.397278 365.333984,175.809250 365.687714,175.115295 
z"/>
<path fill="#2368AE" opacity="1.000000" stroke="none" 
	d="
M259.017151,305.031372 
	C232.797195,287.278656 216.332153,262.840240 210.332916,231.837631 
	C208.360779,221.646133 208.584732,211.007462 208.144775,200.558945 
	C208.047470,198.248337 209.391174,195.877075 210.302368,193.294556 
	C210.747238,198.878036 214.292694,201.887344 218.945282,204.931290 
	C222.553986,207.292282 225.473434,211.359940 227.503403,215.287109 
	C229.333588,218.827759 230.846024,221.948486 234.855560,223.377258 
	C238.344818,224.620651 239.487091,227.473663 238.895599,230.998398 
	C238.456711,233.613754 237.823700,236.196030 237.305649,238.798737 
	C235.313889,248.805054 238.001648,257.536652 244.720703,265.042450 
	C248.698563,269.486084 252.904755,273.725372 257.129089,278.705505 
	C257.526306,280.899872 257.802673,282.445251 258.079071,283.990601 
	C258.334503,288.051392 258.589935,292.112213 258.721375,296.919189 
	C258.887726,299.106995 259.178070,300.548645 259.468414,301.990265 
	C259.617981,302.748016 259.767517,303.505768 259.700012,304.643585 
	C259.483002,305.023651 259.017151,305.031372 259.017151,305.031372 
z"/>
<path fill="#288B2B" opacity="1.000000" stroke="none" 
	d="
M266.883850,316.799011 
	C266.623108,316.652832 266.742462,316.561951 266.743683,316.243225 
	C265.805054,314.623718 264.865204,313.322968 263.934448,312.038727 
	C263.943481,312.055237 263.900848,312.069519 263.900848,312.069519 
	C260.759216,301.751343 260.997803,291.125366 260.684235,280.506866 
	C260.612701,278.083771 258.382599,275.581085 256.788208,273.373383 
	C252.241745,267.077972 247.360901,261.019379 242.949020,254.634460 
	C241.713425,252.846252 241.099335,250.239777 241.145813,248.028503 
	C241.277451,241.764053 241.898499,235.509888 243.424286,229.123932 
	C243.619110,231.052429 244.205139,233.035019 243.947189,234.900925 
	C241.780731,250.572617 248.266525,262.593842 259.297943,272.983978 
	C261.164856,274.742310 262.533569,277.679718 262.916504,280.253296 
	C264.775513,292.746338 262.536041,305.977783 270.911194,317.264557 
	C270.527802,317.445526 270.144409,317.626495 269.761017,317.807495 
	C268.888885,317.520050 268.016754,317.232605 266.883850,316.799011 
z"/>
<path fill="#288B2B" opacity="1.000000" stroke="none" 
	d="
M223.926804,151.542084 
	C223.047653,152.197739 222.390594,152.642212 221.510437,153.237579 
	C223.086426,145.422485 244.856430,125.889969 253.129837,124.286560 
	C243.633652,133.148163 233.891266,142.239532 223.926804,151.542084 
z"/>
<path fill="#216884" opacity="1.000000" stroke="none" 
	d="
M258.193359,283.647461 
	C257.802673,282.445251 257.526306,280.899872 257.307739,278.983917 
	C257.679596,280.176971 257.993591,281.740631 258.193359,283.647461 
z"/>
<path fill="#216884" opacity="1.000000" stroke="none" 
	d="
M259.544128,301.635498 
	C259.178070,300.548645 258.887726,299.106995 258.723450,297.390869 
	C259.106323,298.504486 259.363098,299.892609 259.544128,301.635498 
z"/>
<path fill="#216884" opacity="1.000000" stroke="none" 
	d="
M263.808411,314.065277 
	C262.989777,312.779694 262.171112,311.494141 261.335327,309.851379 
	C262.022278,310.223816 262.726349,310.953400 263.665619,311.876251 
	C263.900848,312.069519 263.943481,312.055237 263.897949,312.378448 
	C263.837769,313.156189 263.823090,313.610748 263.808411,314.065277 
z"/>
<path fill="#216884" opacity="1.000000" stroke="none" 
	d="
M259.100403,305.324890 
	C259.017151,305.031372 259.483002,305.023651 259.715881,305.030457 
	C260.258423,305.819183 260.568024,306.601074 260.890350,307.701660 
	C260.329926,307.219696 259.756805,306.419037 259.100403,305.324890 
z"/>
<path fill="#288B2B" opacity="1.000000" stroke="none" 
	d="
M256.950256,121.921028 
	C256.983704,121.893356 257.087372,122.080391 257.087372,122.080391 
	C257.087372,122.080391 256.916779,121.948700 256.950256,121.921028 
z"/>
<path fill="#288B2B" opacity="1.000000" stroke="none" 
	d="
M218.496979,156.504608 
	C218.515244,156.499451 218.478729,156.509781 218.496979,156.504608 
z"/>
<path fill="#246AA5" opacity="1.000000" stroke="none" 
	d="
M395.365234,157.910492 
	C397.829010,158.519608 399.905914,159.364639 401.985901,159.372192 
	C405.582642,159.385254 407.486633,161.017807 408.442474,164.330048 
	C409.475372,167.909454 406.922180,168.750732 404.598663,170.207352 
	C398.975769,173.732346 393.966522,173.201904 388.630615,167.762466 
	C387.311554,166.417801 384.161163,166.291382 381.957123,166.538177 
	C379.149384,166.852570 376.447906,168.115677 372.579132,169.318466 
	C373.807831,164.239929 374.362335,160.297287 375.843109,156.740250 
	C376.348145,155.527145 379.781433,154.197220 380.846924,154.785614 
	C385.345886,157.269913 389.932281,158.353653 395.365234,157.910492 
z"/>
<path fill="#288C2C" opacity="1.000000" stroke="none" 
	d="
M423.938171,220.768433 
	C423.539429,213.999298 423.447266,207.655624 422.615723,201.410385 
	C421.786682,195.184204 420.216309,189.056732 418.963043,182.846695 
	C428.565186,193.823349 427.354340,248.516937 417.239380,262.417114 
	C419.470795,248.691071 421.695770,234.964050 423.938171,220.768433 
z"/>
<path fill="#288C2C" opacity="1.000000" stroke="none" 
	d="
M411.571594,253.539871 
	C411.287384,257.576294 411.462555,261.334839 410.462128,264.748932 
	C408.126617,272.719238 405.258057,280.535126 402.525604,288.385773 
	C402.027283,289.817596 401.150848,291.117828 400.448944,292.478790 
	C400.025787,292.306610 399.602631,292.134399 399.179474,291.962219 
	C399.712708,290.145813 400.172729,288.304016 400.791931,286.517426 
	C403.405731,278.976074 406.704590,271.597809 408.482361,263.867706 
	C409.630829,258.873993 408.396332,253.368118 408.561066,248.102112 
	C408.721375,242.977768 409.303925,237.866638 409.701050,232.749695 
	C410.299652,232.784805 410.898254,232.819916 411.496857,232.855011 
	C411.496857,239.605179 411.496857,246.355331 411.571594,253.539871 
z"/>
<path fill="#288C2C" opacity="1.000000" stroke="none" 
	d="
M363.630859,190.836639 
	C365.678925,186.492706 367.548462,182.494781 369.417969,178.496857 
	C369.574402,178.504944 369.730804,178.513031 369.887207,178.521118 
	C367.801300,187.627853 365.715424,196.734604 363.629517,205.841339 
	C363.269623,205.866028 362.909729,205.890701 362.549835,205.915390 
	C362.850647,201.004486 363.151489,196.093567 363.630859,190.836639 
z"/>
<path fill="#288C2C" opacity="1.000000" stroke="none" 
	d="
M392.849304,140.849030 
	C392.600555,141.333817 392.052795,141.862976 391.992462,141.812256 
	C387.264465,137.837952 382.574677,133.818176 377.881989,129.801865 
	C378.310364,129.300369 378.738739,128.798889 379.167145,128.297394 
	C383.704041,132.405838 388.240936,136.514297 392.849304,140.849030 
z"/>
<path fill="#288C2C" opacity="1.000000" stroke="none" 
	d="
M374.502777,173.494293 
	C374.483459,173.499496 374.522095,173.489075 374.502777,173.494293 
z"/>
<path fill="#288C2C" opacity="1.000000" stroke="none" 
	d="
M400.505310,149.503754 
	C400.499969,149.484589 400.510681,149.522934 400.505310,149.503754 
z"/>
<path fill="#32993B" opacity="1.000000" stroke="none" 
	d="
M264.038086,314.315308 
	C263.823090,313.610748 263.837769,313.156189 263.888916,312.361938 
	C264.865204,313.322968 265.805054,314.623718 266.796600,316.296356 
	C265.988129,315.967255 265.127960,315.266296 264.038086,314.315308 
z"/>
</svg>