<svg version="1.1" id="Layer_1" xmlns="http://www.w3.org/2000/svg" xmlns:xlink="http://www.w3.org/1999/xlink" x="0px" y="0px"
	 width="100%" viewBox="0 0 1024 1024" enable-background="new 0 0 1024 1024" xml:space="preserve">
<path fill="#000000" opacity="1.000000" stroke="none" 
	d="
M317.281616,978.248901 
	C326.604156,971.089233 337.560822,970.948425 348.065552,969.978699 
	C366.625244,968.265381 385.236420,967.129211 403.753387,964.887878 
	C415.501373,963.465881 415.542053,963.587524 415.636932,951.929504 
	C415.915588,917.681641 421.103577,884.037415 428.182983,850.639465 
	C436.779846,810.082581 449.088715,770.507019 460.018494,730.564209 
	C472.531982,684.833862 484.901642,639.060364 496.823029,593.172913 
	C507.847229,550.739014 512.869141,507.492401 511.501312,463.644928 
	C510.879242,443.703979 508.807556,423.823853 504.532074,404.285065 
	C503.676117,400.373383 502.034607,396.277466 496.491669,396.190460 
	C493.548157,396.144287 494.290131,391.372406 490.444275,390.949310 
	C489.461243,397.052643 493.791168,402.267151 493.474304,408.215393 
	C490.460571,408.666962 487.462891,410.186340 485.225739,407.065399 
	C483.372314,408.007111 484.845062,409.815216 483.591705,410.830017 
	C481.578430,411.034027 480.838196,406.904510 478.319061,408.854950 
	C476.314758,410.406799 478.513641,412.623810 477.841217,415.015930 
	C474.874084,412.956390 471.020660,413.640625 468.811523,410.736969 
	C466.848907,411.756134 468.829773,413.545807 467.279602,414.603516 
	C466.272461,414.084473 465.158203,413.510223 464.055481,412.941925 
	C462.350403,415.408783 464.629700,417.504456 464.402283,419.732117 
	C457.419281,421.733246 457.481812,422.121887 457.116974,429.536957 
	C456.915131,433.639923 453.991211,436.816650 450.847626,439.413910 
	C450.233856,439.920990 449.143494,440.155365 449.217438,441.021057 
	C449.529541,444.675476 446.472870,445.491272 444.392456,447.133911 
	C442.007355,446.349548 442.376617,442.749542 439.537140,442.516174 
	C437.813721,443.610199 438.775848,445.195862 439.309418,446.054871 
	C442.621582,451.387360 438.634705,456.651733 436.264557,458.871613 
	C432.116394,462.756775 429.509521,467.804596 425.234589,471.422546 
	C424.398407,472.130219 423.835083,471.989838 423.036957,471.763000 
	C420.888489,471.152435 419.129333,472.219818 417.448273,473.253174 
	C413.814301,475.487061 411.040192,478.823730 406.383087,479.803101 
	C403.608063,480.386688 402.833649,483.865082 403.960602,487.338745 
	C399.811279,483.912170 396.643311,489.132324 393.224335,487.444489 
	C391.576538,489.220642 393.681519,490.491577 393.113800,492.249512 
	C392.460999,493.204681 390.636200,492.590668 389.873627,494.776489 
	C385.768311,506.543335 381.135132,518.124329 371.781189,526.997009 
	C370.795227,527.932251 370.886932,528.028931 371.092468,532.078064 
	C369.976196,533.089478 368.959564,531.214722 367.728363,532.051514 
	C365.758087,534.443237 368.898315,536.516479 368.425995,539.164368 
	C364.743530,538.998962 364.361481,534.453369 361.180450,533.744141 
	C358.513947,536.023376 360.184479,539.521912 358.737854,542.194641 
	C355.684326,541.107422 356.990723,537.214783 354.469849,535.813904 
	C351.760834,535.866760 352.824127,539.242615 350.510437,540.115356 
	C348.445343,537.826355 350.990143,533.886902 348.300262,531.867126 
	C345.830536,531.931519 346.576294,534.799561 344.477081,535.268738 
	C342.432343,534.884644 343.698975,532.025513 342.168427,531.168457 
	C339.633179,530.952271 339.463501,534.161011 336.906158,534.296509 
	C335.993500,531.569214 338.477081,529.894470 339.019409,527.701477 
	C339.395172,526.182068 341.076721,524.701172 339.594635,523.111938 
	C338.261353,521.682190 336.788361,523.023132 335.439850,523.444641 
	C333.847778,523.942261 332.302704,524.552429 330.118286,524.005920 
	C331.332916,521.922363 330.591797,520.147705 329.201996,518.887390 
	C330.290588,515.043701 335.788361,514.825012 335.474518,510.193207 
	C331.856506,508.899139 329.306580,512.986206 325.721893,511.758362 
	C325.231110,508.313354 328.822571,506.860931 329.498047,504.265625 
	C329.117065,502.247925 327.217133,503.077148 325.836060,502.073364 
	C329.372925,497.560608 334.731506,492.079590 322.123810,493.343933 
	C324.111786,490.702423 326.257385,488.853638 324.605560,485.838593 
	C323.829132,484.421417 325.345581,483.501892 326.362427,482.633789 
	C327.708740,481.484406 329.603729,480.809448 329.918579,478.766174 
	C328.320801,476.029022 325.432465,478.776001 323.346191,477.019714 
	C324.959534,475.188141 326.529327,473.406006 328.429535,471.248810 
	C324.895111,469.886993 324.052795,466.162018 320.635651,464.507690 
	C322.650482,462.792297 322.919983,460.701782 321.642914,458.464996 
	C325.043976,455.946869 329.047577,454.912842 332.090302,451.934845 
	C329.445190,449.878845 326.586426,450.594269 322.118530,451.121094 
	C326.807281,445.686340 324.237000,439.074036 329.398987,435.477997 
	C328.288849,432.988708 325.831177,434.158875 324.390198,432.834564 
	C326.173218,429.875610 330.662445,430.795746 332.044403,427.831512 
	C333.890503,423.871613 330.243317,422.554718 326.912689,420.863983 
	C329.569183,419.568359 331.434448,418.658600 333.535217,417.634003 
	C332.385284,414.077026 328.419891,410.321045 334.092743,407.776276 
	C334.345245,405.733978 332.156708,405.849701 331.804901,404.385132 
	C333.413879,401.844818 337.568481,404.295990 339.125061,400.287903 
	C334.478241,399.180115 329.481171,401.233429 325.028687,398.513153 
	C325.945648,396.420044 330.110687,395.505920 327.487579,392.327850 
	C330.491486,389.736511 334.341034,391.880951 337.098541,389.980804 
	C337.782593,387.751465 335.143219,387.821808 334.850464,385.991119 
	C337.450562,384.205872 341.096313,384.365051 343.591034,382.143951 
	C341.004120,378.460480 338.282776,378.167206 334.455292,381.854553 
	C331.480438,384.720459 328.507111,386.094269 324.283600,385.333069 
	C320.839050,384.712311 314.063904,376.763062 313.225861,373.316071 
	C310.745087,363.111877 316.932343,355.255829 319.692017,346.473267 
	C319.790619,346.159424 320.042267,345.890625 320.124512,345.575256 
	C320.694946,343.388153 322.349152,340.839294 320.532471,339.023621 
	C318.495483,336.987762 316.177307,339.012360 314.206696,340.121216 
	C300.401398,347.889343 287.194061,356.597992 275.176880,366.907806 
	C270.038635,371.316071 265.349701,376.477753 261.368835,381.959534 
	C251.786240,395.155121 241.649185,407.998932 233.752457,422.357819 
	C233.474823,422.862579 232.879517,423.192688 232.253342,423.768860 
	C230.645416,421.738953 231.758972,420.060699 232.308685,418.454803 
	C234.422043,412.281067 237.393814,406.521301 240.784164,400.953979 
	C241.790817,399.300934 243.422836,397.477631 242.345627,395.455658 
	C241.185242,393.277588 238.778290,394.262939 236.877151,394.235046 
	C233.806915,394.189941 230.704376,394.595154 227.601166,393.232269 
	C233.458572,389.829895 240.880463,389.696899 246.201385,383.398315 
	C240.088303,381.124176 234.450867,385.988098 228.934204,382.624786 
	C231.033310,377.918518 225.213013,378.991241 223.500305,376.368805 
	C226.808258,374.830811 230.175461,375.005493 233.345520,374.301453 
	C236.337601,373.636993 239.308823,372.941406 236.818436,368.853333 
	C244.062866,365.450043 252.365677,365.661835 259.883759,359.290741 
	C248.426865,356.861938 237.367035,356.425293 230.540100,345.771118 
	C240.643265,346.861694 250.287048,349.551208 260.362762,347.186554 
	C256.575562,341.586609 245.728683,344.289215 246.534927,334.244446 
	C253.146255,332.594666 259.354401,337.276886 266.151093,334.871155 
	C263.727203,330.475037 258.301727,329.529816 256.020996,324.727539 
	C260.929779,324.805450 264.373627,328.273041 270.176361,329.034485 
	C266.115448,324.355286 260.300079,323.567749 258.665558,318.374786 
	C261.334229,317.358459 263.800354,320.496826 266.273499,318.537872 
	C266.849915,316.211334 263.738831,315.943359 263.807434,313.715240 
	C266.205627,312.490845 268.475006,315.149994 271.206573,313.916687 
	C267.100861,310.905609 262.270966,309.378296 258.229340,305.749939 
	C261.220306,304.114746 263.656586,306.831329 266.267181,305.134613 
	C265.160614,302.256927 266.216980,299.236359 266.220062,295.698975 
	C269.057220,296.977966 271.571899,298.178802 274.139923,299.251862 
	C277.205170,300.532715 280.321075,301.290771 282.613251,297.931793 
	C285.094452,294.295776 280.570953,293.771637 279.551208,291.427032 
	C282.506500,287.491241 288.045288,284.370239 284.140198,277.459595 
	C288.669006,278.017212 292.495941,277.387695 295.502655,275.079041 
	C299.599121,271.933685 295.143372,268.398651 295.295746,264.978790 
	C296.920776,263.649841 298.052399,265.226379 299.339996,265.669342 
	C300.463318,266.055786 301.874969,266.750793 302.644836,265.809357 
	C307.162262,260.285156 314.795044,258.040192 317.922699,251.029129 
	C319.264832,248.020508 322.856415,246.796997 325.270325,247.003113 
	C328.447388,247.274414 331.070831,245.984390 333.948792,245.873825 
	C337.269653,245.746277 339.246613,244.901749 338.226105,241.450256 
	C339.530975,239.552155 341.680054,240.555542 343.199524,239.049194 
	C342.202271,237.203018 338.506744,236.813370 340.316681,233.310730 
	C336.562408,233.563858 333.615723,232.306046 330.519775,231.954453 
	C327.568542,231.619324 325.015717,229.567749 321.875031,230.441254 
	C322.235809,225.560135 316.654053,221.712708 308.949280,221.144638 
	C307.907898,219.826187 310.285461,218.766418 308.827820,217.105682 
	C308.860870,217.124023 308.427795,216.666840 308.025177,216.692261 
	C299.129486,217.253830 291.576172,214.306442 284.673981,208.711151 
	C281.059998,205.781494 276.807556,203.480682 272.538635,201.580734 
	C270.198212,200.539108 269.192688,198.262985 266.628174,197.348114 
	C261.795593,195.624146 256.569244,195.524887 251.922577,193.334152 
	C247.191513,191.103622 242.446274,193.999725 237.653244,193.390106 
	C237.307877,190.768906 240.832001,191.612717 240.804321,189.211182 
	C238.544968,187.336655 235.832397,188.966324 232.943192,188.584091 
	C232.528610,186.966995 232.807251,184.648407 229.912125,184.352386 
	C227.564850,184.112381 227.105270,181.876022 226.850464,179.866821 
	C226.369720,176.075851 225.715500,172.345062 223.622040,169.003906 
	C224.682877,167.542480 226.345047,167.661011 227.725372,167.875900 
	C231.715759,168.497147 232.069153,165.663589 232.981079,162.999420 
	C234.094925,159.745331 231.345398,159.442291 229.713196,158.404236 
	C226.956879,156.651245 223.953339,155.245438 221.355133,151.356598 
	C228.674988,151.631271 233.900085,156.061584 240.590363,156.262756 
	C239.662567,150.895569 233.103683,151.150909 231.831253,146.427948 
	C234.140900,145.120071 236.618347,147.925537 239.135529,146.083984 
	C238.790512,142.008881 233.552567,140.238495 233.581192,135.528793 
	C236.763977,135.633148 238.839371,138.794769 242.187012,138.099579 
	C243.966370,134.119629 242.059662,130.850235 239.584579,127.518578 
	C242.826523,126.082359 245.168518,129.367279 247.764526,128.399918 
	C249.775482,127.121292 247.654083,125.118256 248.745605,123.827713 
	C250.541336,122.564140 252.192368,122.883415 253.979675,123.766808 
	C255.456268,124.496635 257.068146,125.025520 258.676544,125.402588 
	C263.876373,126.621628 264.989746,125.870987 266.162933,119.968971 
	C269.317261,124.737457 273.665466,125.901894 278.676331,125.534477 
	C281.290771,125.342773 282.039154,128.735275 285.016174,128.937714 
	C285.047852,125.014153 290.370483,125.399597 290.593414,121.407684 
	C294.424866,122.779480 293.677795,129.030594 298.753113,128.030167 
	C301.265930,127.534843 299.793701,124.815788 301.417297,122.656624 
	C304.078461,127.894882 308.969635,130.338608 312.564819,134.378387 
	C314.481384,132.226349 311.830322,129.941422 313.489471,127.879837 
	C317.271393,129.458694 316.940186,134.585846 320.538971,136.407455 
	C322.710693,135.197601 320.854706,132.832108 322.151886,131.380356 
	C324.718445,131.202103 325.858978,133.164642 327.069366,134.882019 
	C330.600830,139.892746 331.069427,139.911850 334.468811,134.784119 
	C336.214508,135.563583 337.227936,138.506088 339.949402,136.617905 
	C340.959961,135.916763 341.823456,136.744308 342.398438,137.642899 
	C344.946136,141.624435 347.415222,141.270020 349.673218,137.019608 
	C351.769745,138.995529 351.591766,142.177872 354.434113,142.967300 
	C358.032166,143.966614 357.423401,139.385117 359.909027,138.942596 
	C361.925659,139.851105 361.140015,141.868347 361.680695,143.325409 
	C362.305664,145.009720 363.398102,146.968567 365.069336,146.277740 
	C368.354706,144.919662 368.969208,147.467667 370.176758,149.199371 
	C371.211823,148.648666 372.023712,148.216705 372.695709,147.859177 
	C374.432251,148.771866 374.096619,151.239365 376.222961,151.513260 
	C378.535858,151.400528 377.979889,148.504868 379.670868,147.691101 
	C382.062531,148.719604 381.070923,150.838348 381.324677,152.474274 
	C381.703491,154.915939 382.153137,157.220779 385.370453,157.031540 
	C386.324860,156.975403 387.006989,157.084213 387.236298,158.102524 
	C387.563751,159.556702 387.644135,161.339905 389.756256,161.136383 
	C391.810730,160.938400 392.914978,159.481644 393.508698,157.586731 
	C393.803253,156.646500 394.035095,155.636032 395.502747,155.073776 
	C396.904938,156.800476 396.164154,161.137161 399.743042,160.400772 
	C402.170197,159.901352 405.534729,158.317398 406.261292,156.384460 
	C407.709473,152.531799 402.821594,151.379089 401.155975,148.592239 
	C403.553589,144.119934 406.686798,143.596985 410.985260,146.285492 
	C413.245880,147.699448 415.686615,149.597321 419.511719,148.242264 
	C414.782257,142.315033 408.306671,138.557861 403.865723,132.766220 
	C407.405670,132.542068 409.592651,135.158035 413.396820,136.472351 
	C409.260284,131.761078 404.968719,128.378418 402.250977,124.004898 
	C402.731598,121.928627 405.004486,123.275970 405.394806,121.826965 
	C406.049866,120.206329 403.995331,119.047852 404.845947,117.380287 
	C407.821960,117.586990 409.534393,120.703590 412.380402,120.546135 
	C414.244965,119.578056 412.440155,117.924744 413.710236,116.588028 
	C414.566864,116.534851 415.815308,116.457359 417.341095,116.362648 
	C417.203247,111.986748 417.493744,107.957115 423.454895,109.725563 
	C424.602997,106.919487 421.594482,105.403015 421.766968,103.111465 
	C422.832764,101.889442 423.626984,103.205116 424.508545,103.226250 
	C426.331482,103.269943 428.356750,103.253555 429.613800,101.894112 
	C431.210846,100.166946 429.535156,98.499245 428.827972,96.886040 
	C427.937042,94.853546 426.338318,93.077118 426.084778,90.616463 
	C429.367981,90.339378 429.668030,94.669754 432.996735,93.858154 
	C433.839050,90.874260 430.837311,88.438713 431.621399,85.079445 
	C437.356781,85.081825 434.043213,78.957146 436.717194,76.704239 
	C438.725159,76.206421 439.713684,78.653076 442.299286,77.591621 
	C442.455292,73.434784 441.071503,68.451675 445.252197,64.366608 
	C451.971100,64.002556 454.156128,62.387085 454.511017,57.226860 
	C461.126709,55.208511 461.421936,48.530365 464.965424,44.125999 
	C466.762390,44.848221 468.007843,47.492661 470.771545,46.913395 
	C472.572449,44.685406 472.400024,41.952145 472.785431,39.152782 
	C479.940002,40.336285 476.620361,34.165020 478.286591,31.125757 
	C481.739380,32.058006 481.333710,37.150730 485.796631,37.677467 
	C486.753662,33.273800 483.850403,27.327526 490.566986,25.018175 
	C493.353943,25.762533 493.304565,29.733368 496.118317,31.490206 
	C499.737854,29.291775 499.321808,24.857834 501.544556,21.474833 
	C503.497528,23.422272 501.675781,31.590738 507.719238,25.650734 
	C509.610168,26.710129 508.260712,28.899263 509.944489,29.669277 
	C512.541138,29.270643 513.323303,26.038351 515.994568,25.661318 
	C517.630981,27.534788 514.707825,29.464544 516.229431,31.351740 
	C519.149597,32.160690 520.978821,28.513247 523.951111,29.198923 
	C521.990967,36.835575 521.990967,36.835575 528.198608,38.230320 
	C528.629211,40.759521 521.881714,41.046173 526.103149,45.210541 
	C526.984741,46.080257 524.094116,49.268250 524.410828,52.431938 
	C525.177673,60.093410 522.113464,67.350647 520.020081,74.657791 
	C518.296509,80.674072 517.092834,86.821869 516.548706,93.044395 
	C516.255493,96.397453 518.871277,98.732506 520.915710,101.439247 
	C516.868652,105.359177 517.968750,109.095276 521.469604,112.611389 
	C522.331421,113.476898 523.095276,114.150818 522.405396,115.571945 
	C520.741211,119.000092 522.873047,121.942909 524.635376,124.188980 
	C528.187805,128.716568 527.224731,133.288681 525.964172,137.987137 
	C525.636169,139.209824 525.228455,140.339447 526.081543,141.227478 
	C528.151489,143.382111 527.679077,145.325867 525.854126,147.044266 
	C526.030396,147.627167 526.030212,148.026138 526.229614,148.228119 
	C532.209167,154.285828 535.550720,153.678909 539.346558,145.901825 
	C539.687378,145.203491 540.172180,144.143265 540.727356,144.047592 
	C547.322754,142.910980 550.152161,138.259293 551.674377,132.446808 
	C552.394470,129.696976 557.640320,131.880829 556.147339,127.851761 
	C558.217773,126.927513 558.160217,129.429672 560.197205,128.735550 
	C561.630310,123.593071 568.780029,121.644318 568.839661,114.997635 
	C570.776123,114.468475 569.876465,116.887360 571.333923,116.981140 
	C573.202759,116.508965 573.111816,114.035828 574.694580,113.103470 
	C579.166077,115.352921 581.610962,113.234695 586.193298,102.941727 
	C593.456848,108.071701 596.052979,100.658501 598.892761,97.164856 
	C602.258057,93.024612 604.829163,92.792992 608.927551,95.609238 
	C611.074524,92.345245 615.650818,93.021873 617.713501,89.074272 
	C619.510254,90.977310 621.124146,91.751228 623.097351,89.576942 
	C626.907837,85.378242 631.450439,83.223564 637.203674,85.641151 
	C637.627563,85.819260 638.248291,85.817322 638.678772,85.648010 
	C645.339966,83.028282 651.387878,86.462357 657.683411,87.486717 
	C659.114380,87.719543 660.615479,87.520973 662.464417,87.520973 
	C662.730896,90.765617 663.384644,94.083817 660.948425,97.131584 
	C660.210510,98.054787 660.079712,99.376060 660.944092,100.396622 
	C661.926270,101.556374 663.200195,101.531677 664.597595,101.084381 
	C666.906433,100.345314 668.981750,98.672325 671.970276,99.182602 
	C671.862915,102.483521 667.073547,102.979546 667.735962,106.684097 
	C672.137878,110.093246 677.770020,110.642838 684.099426,111.823967 
	C681.146179,114.080528 678.582397,114.204315 676.370850,115.145561 
	C674.887756,115.776787 672.820190,116.003548 672.687195,118.019203 
	C672.554871,120.025970 674.499512,120.585655 675.947754,121.352486 
	C676.662415,121.730942 677.415405,122.037056 678.031921,122.321007 
	C676.370056,128.809143 679.015686,133.927277 682.746704,139.051224 
	C679.890015,139.833344 677.634460,136.659271 675.158447,139.071777 
	C674.468750,141.871780 677.806519,142.840149 678.515686,145.498901 
	C676.944885,148.496536 674.830322,151.163528 671.107239,152.265274 
	C666.493103,153.630722 666.106079,154.833817 668.879395,158.674133 
	C669.359375,159.338806 669.873962,159.978500 670.670044,161.018280 
	C667.262939,162.402695 666.594727,164.547607 669.473022,167.384415 
	C666.995056,168.241486 665.196777,169.317398 664.352905,171.350616 
	C657.736023,169.188766 657.709656,169.176239 654.703613,175.508514 
	C654.343933,176.266266 653.900635,176.561722 653.223938,176.481079 
	C649.972168,176.093613 649.713074,178.880630 648.575867,181.076172 
	C643.623474,179.077942 641.504578,181.052414 641.090515,186.109497 
	C640.832336,189.262543 638.152832,190.785812 635.399963,191.742828 
	C632.158569,192.869659 629.482178,194.696823 629.540466,198.337067 
	C629.596619,201.846024 631.588440,204.427612 634.835022,206.196365 
	C642.897278,210.588760 647.450623,220.857758 644.971558,228.183945 
	C644.100708,230.757446 642.861938,232.663254 640.008545,233.156586 
	C639.372742,233.266510 638.708130,233.541534 638.186829,233.919785 
	C636.655029,235.031403 635.471069,236.449371 635.531982,238.452042 
	C635.547607,238.965866 636.141479,239.765854 636.625183,239.909134 
	C638.714417,240.527908 639.329956,238.430344 640.623840,237.544968 
	C642.293274,236.402634 642.311340,233.288971 645.597595,233.670380 
	C645.880737,237.078888 643.483154,239.395844 642.297729,242.164841 
	C641.454102,244.135361 638.906250,246.533890 641.424438,248.335098 
	C643.678711,249.947586 645.167419,247.018723 646.586670,245.583908 
	C651.317810,240.800690 655.921997,235.891891 661.161438,231.352585 
	C660.041931,237.105972 654.801331,241.642700 656.832031,248.731918 
	C664.159058,246.839676 669.277588,240.424911 677.164368,239.142303 
	C675.492920,245.397568 667.415771,245.652420 666.234314,253.311630 
	C675.733826,249.051346 682.667908,242.229446 691.521851,238.868927 
	C688.309692,242.379654 685.125671,245.916687 681.874695,249.391129 
	C679.954590,251.443237 675.614502,252.875473 677.853699,256.305084 
	C680.353760,260.134064 683.418213,256.289642 686.076843,255.246109 
	C690.623169,253.461639 695.065552,251.412552 700.127258,250.390533 
	C687.919739,258.378601 678.387329,269.379913 666.311523,277.424347 
	C671.580566,278.397644 675.351196,275.281494 679.566101,273.733887 
	C682.508118,272.653625 685.179810,270.834381 687.966675,269.334991 
	C691.268127,267.558746 693.768616,264.594421 698.618103,267.406097 
	C701.575012,269.120483 705.793457,265.786041 709.495300,264.908813 
	C712.793457,264.127258 715.845825,262.342438 719.809509,262.155701 
	C715.701965,268.296173 708.601990,269.555420 703.671814,273.791534 
	C713.640991,271.653137 724.478210,273.778900 733.097778,266.278839 
	C731.685303,269.873810 736.613281,273.215973 731.830811,276.075928 
	C735.734558,278.231293 738.122375,274.689087 741.533081,275.279877 
	C738.995789,279.342041 734.302979,280.369507 731.734314,283.886475 
	C733.715149,285.481750 735.281494,282.777527 737.102661,283.863373 
	C738.215454,286.136108 734.397217,286.715088 735.362000,289.210083 
	C737.852173,291.383911 739.834534,287.552643 742.627502,288.062195 
	C741.240479,294.135315 735.939758,296.239258 732.024963,300.002411 
	C736.312988,298.007812 740.600952,296.013214 745.539856,293.715820 
	C744.371582,298.973053 739.516968,300.263428 737.373169,304.631958 
	C743.867859,306.036194 749.530334,302.533112 755.736511,302.950226 
	C758.839722,312.102173 747.806885,310.949036 745.617371,316.935028 
	C755.058899,319.460785 763.600586,314.386353 772.658020,313.745453 
	C766.952576,324.293884 756.261230,325.714203 745.353699,329.296844 
	C753.256592,334.796661 761.558289,334.254761 769.265747,336.895874 
	C766.124146,339.866486 766.801453,341.300293 770.627441,341.664886 
	C774.410217,342.025391 778.171021,342.616913 781.932495,343.105927 
	C782.308533,346.394928 774.240479,344.533539 777.809692,349.577576 
	C773.598694,355.200806 767.279968,349.545624 761.108765,352.236053 
	C767.381836,357.386841 773.943481,358.467499 780.385925,360.031738 
	C777.525391,361.755829 774.689209,362.297241 771.722290,362.224518 
	C769.566040,362.171722 767.086060,361.651642 765.779114,363.818298 
	C764.277283,366.307770 766.397522,368.244995 767.636414,370.095734 
	C771.346436,375.638062 775.201477,381.084076 777.361267,387.484100 
	C777.715271,388.533142 778.561462,389.566040 777.431702,391.123474 
	C774.137207,389.038971 772.649048,385.439575 770.416138,382.591064 
	C759.105530,368.162109 747.724854,353.790680 734.246887,341.287842 
	C727.001892,334.567078 718.386719,329.634277 709.826660,324.884064 
	C700.529663,319.724884 691.278870,314.352631 681.315186,310.485535 
	C679.446411,309.760193 677.276428,308.252991 675.364319,310.552338 
	C673.862366,312.358429 675.530823,319.368073 677.816223,319.716888 
	C681.096497,320.217499 681.596619,324.315826 684.859009,324.486938 
	C684.769714,325.598328 684.680420,326.709747 684.596130,327.758698 
	C685.664978,329.508667 687.948059,328.026855 689.254272,329.863312 
	C687.842529,331.666382 686.150940,333.741913 689.126343,335.601044 
	C687.706360,337.335785 685.425903,337.410248 684.544189,340.061310 
	C689.004089,345.632263 694.413452,340.779877 699.672424,341.025848 
	C700.481079,343.395477 699.401733,345.930084 699.469604,348.359680 
	C700.751404,350.318329 702.757263,347.830750 704.289795,349.565216 
	C703.977600,351.783173 701.130493,351.350708 699.910522,353.299896 
	C701.377563,355.269257 697.713135,359.836029 703.383179,359.719482 
	C703.478088,362.015106 701.083618,362.083252 700.967896,363.735535 
	C701.418701,365.577240 703.526184,364.117615 704.254211,365.401123 
	C700.590454,372.108459 700.590454,372.108459 710.788330,374.167664 
	C713.311829,380.171204 706.098328,379.279236 704.330078,383.074188 
	C710.149719,386.319397 716.547424,384.943573 722.394348,385.897919 
	C717.654114,392.966644 708.819702,391.093719 702.679810,394.909576 
	C703.892029,398.095032 706.497070,398.435913 708.335938,399.715363 
	C711.270752,401.757416 715.134644,402.058594 716.580261,406.666626 
	C717.434326,409.388947 722.261658,409.255280 725.083740,410.669708 
	C720.989380,416.929291 715.402405,417.105438 708.265808,414.908173 
	C711.628845,419.973206 716.283081,421.001221 719.764832,423.931976 
	C717.991394,426.044891 716.028625,424.692596 714.286377,424.445160 
	C707.763000,423.518829 706.499634,424.979706 708.835266,431.018951 
	C710.918396,436.405579 713.049072,441.771179 712.959473,447.735229 
	C710.306274,448.124298 710.628418,445.984863 710.123108,444.859497 
	C703.432190,429.957520 696.214966,415.346100 687.244934,401.646057 
	C683.921265,396.569641 679.656677,392.303986 675.351379,388.192963 
	C662.202576,375.637451 648.292603,363.975281 632.402100,354.946991 
	C630.333252,353.771606 627.360352,350.659210 625.584106,353.873566 
	C624.229980,356.324219 625.070923,359.762360 628.761414,361.877899 
	C633.597107,364.649841 636.028687,370.038239 638.989502,374.545624 
	C640.198303,376.385803 641.559631,377.213776 643.164185,378.317780 
	C641.236145,385.098816 646.191833,388.095978 650.777100,391.682159 
	C648.644104,394.743958 651.527771,397.121368 651.897705,399.684753 
	C653.413818,410.189972 662.237732,412.791992 668.677979,418.436218 
	C673.371033,422.549316 677.175537,428.426270 681.751465,432.851837 
	C687.945801,438.842468 690.338501,446.973053 695.740234,453.212036 
	C696.049866,453.569611 696.502075,454.220032 696.373596,454.478790 
	C694.099548,459.057800 698.609131,461.450958 699.721069,464.918518 
	C700.874329,468.514862 703.919373,469.823395 707.115784,470.170441 
	C709.352661,475.522095 704.125916,481.249634 706.569458,484.810364 
	C710.180908,490.072876 704.256287,494.407074 706.936340,498.737000 
	C708.321289,499.343353 709.223694,498.748077 709.576843,497.781464 
	C713.279175,487.648193 720.264832,479.612183 726.479248,471.078369 
	C727.963257,469.040436 728.997681,466.729004 729.166748,464.196075 
	C729.508911,459.068176 735.565552,455.374054 740.072144,457.996796 
	C741.696350,458.942078 742.824280,459.303741 744.568848,458.842590 
	C748.211060,457.879883 748.759888,461.923309 751.109802,463.272827 
	C758.148438,467.314880 758.182739,472.430328 758.520691,480.370331 
	C758.972351,490.979797 752.151184,498.927521 750.957275,508.727295 
	C750.576721,511.850983 747.343079,514.523926 746.048706,517.664307 
	C744.232483,522.070923 740.763306,524.566162 737.222534,527.340210 
	C734.324036,529.611084 733.038879,533.253296 732.245422,537.067444 
	C735.823059,540.423401 739.775940,538.403748 743.239746,537.096985 
	C746.162170,535.994507 748.786682,535.413452 751.581055,536.661865 
	C753.229187,537.398254 754.476685,536.856812 755.775452,536.081055 
	C761.589722,532.607910 768.686768,531.296021 773.237793,525.677490 
	C773.901184,524.858398 775.079956,524.483276 775.981750,524.940491 
	C780.222961,527.091248 784.355713,525.377258 788.425842,524.556274 
	C790.974487,524.042297 792.066895,525.561523 793.503418,526.862122 
	C796.130310,529.240417 798.780823,531.527100 802.684998,529.611023 
	C803.492310,534.679382 807.190063,541.830688 810.062134,544.034180 
	C808.432312,553.099670 804.790527,560.768799 797.731506,567.263611 
	C793.468079,571.186218 788.509277,573.706421 784.193665,577.209229 
	C780.418274,580.273499 776.601257,582.854614 772.128357,584.622375 
	C771.024841,585.058472 770.195923,586.043396 770.430054,587.396606 
	C770.658936,588.719299 771.769775,589.185669 772.893311,589.608582 
	C779.920288,592.253967 786.073364,596.129211 792.090515,600.754883 
	C795.699890,603.529663 797.580750,608.836243 803.478577,609.159424 
	C805.642273,609.278015 805.508911,613.604248 807.523865,615.587524 
	C814.107300,622.067627 816.777954,630.353577 817.556824,638.658447 
	C813.925476,643.868103 808.861023,647.457458 808.566650,654.451721 
	C804.682861,651.186707 801.025696,653.212708 798.419373,655.611511 
	C794.751282,658.987488 791.328735,657.654419 787.972778,656.183716 
	C785.656494,655.168823 783.908997,654.625305 781.488586,655.858398 
	C779.314148,656.966187 776.297363,656.874268 775.345703,654.406067 
	C773.172119,648.768616 766.991760,648.898987 763.471008,645.325378 
	C758.598511,640.379822 751.320862,642.801147 745.707458,639.733704 
	C743.956299,638.776672 741.350586,639.971375 742.797974,642.924255 
	C744.108582,645.597900 743.311707,649.995789 748.242676,649.481628 
	C747.440674,653.460876 744.606140,654.412781 741.450806,655.963989 
	C749.110046,657.935059 752.460327,663.136169 753.668823,670.573303 
	C749.850647,670.928040 748.272705,673.528198 748.200684,676.949158 
	C748.093323,682.046326 746.754395,686.953064 747.465637,692.291443 
	C747.941650,695.864319 744.912964,699.993469 744.798889,704.150635 
	C744.621765,710.601746 740.207092,715.581726 738.939209,721.531189 
	C737.355957,728.960815 731.173218,734.373840 730.556885,742.093567 
	C726.335815,743.058411 727.474182,750.270386 721.522095,749.578369 
	C718.770020,749.258301 719.617249,752.563782 718.513062,754.527832 
	C713.241333,753.052673 708.097595,755.827515 702.380920,755.320923 
	C701.357788,754.054626 702.148804,750.930542 698.863586,751.125854 
	C697.165955,751.226746 697.786499,749.531006 697.466614,748.502380 
	C694.669556,739.509827 693.945435,730.105957 691.890686,720.970947 
	C691.032837,717.157288 690.919312,712.918396 686.461548,711.023315 
	C685.294861,710.527344 685.473694,709.406982 685.687317,708.418640 
	C686.173279,706.169983 684.163025,705.441772 683.263306,703.995117 
	C680.471191,699.505554 675.358765,697.192444 672.965027,692.401489 
	C671.825989,690.121643 670.686768,687.516174 670.376709,685.338379 
	C669.654297,680.264709 667.216614,676.073120 664.851501,671.930725 
	C663.592163,669.724915 662.676453,667.088623 663.173462,665.477600 
	C664.723267,660.454407 661.320007,657.490112 659.538940,653.818298 
	C659.323669,653.374573 659.089905,652.742188 658.714355,652.603027 
	C651.560364,649.950684 647.922791,641.498596 639.453003,640.961853 
	C638.199951,640.882446 636.905273,640.177246 635.784546,639.504089 
	C629.585938,635.780945 629.152771,635.770447 624.872559,641.294617 
	C600.277893,673.037048 580.252502,707.584351 562.609863,743.545166 
	C533.319275,803.248047 511.382782,865.690125 493.889374,929.755981 
	C491.479401,938.581787 489.287048,947.469299 487.138000,956.363037 
	C486.101105,960.654053 487.492035,962.485718 491.633820,962.402527 
	C516.909668,961.895203 541.718567,966.311035 566.653015,969.414673 
	C573.426941,970.257874 580.216614,970.976685 586.985657,971.856140 
	C590.151855,972.267456 593.154907,973.338867 595.879761,975.018250 
	C600.880066,978.100098 601.423828,982.904236 597.284180,987.105591 
	C595.240845,989.179321 592.740112,990.578125 589.897644,991.053162 
	C586.954895,991.544983 583.927612,992.051941 580.975342,991.884033 
	C554.738464,990.391907 528.793518,994.864502 502.660675,995.632812 
	C483.978271,996.182129 465.338440,996.029297 446.721375,994.874939 
	C422.593323,993.378906 398.449066,993.171692 374.296234,992.938904 
	C358.140900,992.783264 341.985748,992.578125 325.832092,992.303650 
	C323.186432,992.258667 320.474213,992.034058 317.922028,991.384521 
	C311.339264,989.709290 310.213287,985.627563 314.743073,980.440125 
	C315.392059,979.696838 316.235596,979.123474 317.281616,978.248901 
M543.926208,492.455597 
	C544.333801,497.053497 542.883728,502.042236 546.703308,506.331635 
	C548.277832,502.632050 553.655823,502.297852 552.766785,497.563538 
	C557.451965,497.683105 561.418945,498.939301 565.006226,501.457916 
	C566.511963,498.186798 562.588318,496.285248 564.212158,493.075592 
	C568.049438,497.111389 573.724304,494.583832 577.192505,497.828918 
	C579.329529,496.482666 577.800415,494.247253 579.659363,493.559601 
	C584.537537,497.852203 585.646912,497.793335 591.777588,492.735596 
	C593.814880,498.117828 600.372009,493.919769 602.891174,498.716949 
	C605.372559,495.665283 608.669312,493.895355 611.589233,493.668640 
	C616.900574,493.256317 614.495911,498.552704 615.347229,501.158447 
	C617.691406,508.333649 618.753723,509.100494 625.363098,505.556488 
	C626.996826,509.260834 630.815674,508.917175 633.219116,507.981903 
	C635.992554,506.902588 636.293579,503.579071 634.556519,500.646179 
	C634.176270,500.004181 634.338806,499.046051 634.231873,498.236084 
	C633.365234,491.671570 635.370972,485.158234 634.449646,478.537476 
	C634.078003,475.867279 634.148743,472.703918 635.703125,470.264465 
	C641.938660,460.478699 644.130737,449.896179 641.602234,438.636444 
	C640.625244,434.285553 641.720581,429.313354 638.729797,425.653931 
	C635.947571,425.381989 635.229614,427.850647 633.154663,428.383331 
	C627.927979,429.725159 623.464417,427.732147 618.710388,426.310303 
	C615.201904,425.260986 616.118958,421.980560 614.578552,420.013458 
	C613.761292,418.969910 613.055237,417.820526 612.429138,416.649353 
	C609.863831,411.851013 605.018494,409.790558 600.964355,406.699615 
	C595.534668,402.559906 590.462341,397.910156 585.531616,393.172333 
	C582.336426,390.102142 577.973877,388.496643 575.131042,385.459076 
	C571.484680,381.562927 567.762817,377.648560 564.340210,373.500519 
	C559.889954,368.106934 554.699585,366.958374 548.150146,369.579498 
	C547.394775,369.881836 546.645020,370.287903 545.856934,370.404907 
	C539.045105,371.416382 533.115479,380.448029 534.886108,387.346039 
	C537.825745,398.797791 539.351379,410.517303 540.781982,422.189758 
	C543.599182,445.175201 543.818176,468.331177 543.926208,492.455597 
M527.325012,741.908081 
	C539.586731,719.744385 552.783264,698.164795 566.975525,677.171936 
	C581.066406,656.328979 597.108154,636.926880 612.764709,616.611694 
	C609.514038,615.191650 607.381287,613.986206 605.510803,615.711304 
	C598.815063,621.886597 590.489197,618.444336 582.995178,619.813171 
	C578.843384,620.571533 574.202698,619.828674 570.600281,622.163025 
	C563.964478,626.463074 557.208252,630.502686 550.297485,634.340027 
	C545.059570,637.248596 540.292297,636.106140 537.538574,630.508179 
	C536.123169,627.630859 533.068176,625.092163 535.237488,621.294800 
	C530.793213,617.677063 534.826965,612.981323 535.905151,610.943726 
	C538.786560,605.498169 540.771362,599.512634 544.308594,594.458496 
	C546.078796,591.929199 545.662720,588.787415 547.857300,586.363281 
	C553.638000,579.977783 559.093384,573.303650 565.193665,567.194702 
	C566.695251,565.691040 567.890381,563.624268 567.259460,561.304871 
	C566.342834,557.935486 568.746643,557.317871 570.946045,556.710266 
	C574.797546,555.646362 579.709412,557.537415 582.156921,552.518982 
	C582.321045,552.182434 583.826843,552.700134 584.469360,552.363647 
	C587.831787,550.602722 593.459290,552.554504 594.252441,546.353577 
	C594.344055,545.637390 595.496887,543.574341 597.132690,544.186157 
	C600.225220,545.342896 603.970703,543.416992 605.709900,543.964417 
	C611.824341,545.888733 617.334351,543.152161 623.622925,543.872314 
	C617.116455,537.620483 609.312500,535.754944 601.536499,534.357056 
	C581.533936,530.761108 562.485779,534.599670 544.117371,542.687805 
	C541.275269,543.939270 539.771790,546.202332 539.410645,549.257385 
	C536.992676,569.713440 534.116211,590.084229 530.581299,610.398132 
	C525.198303,641.332336 518.807251,672.062073 512.856689,702.878662 
	C507.314026,731.582886 502.366272,760.384216 497.500458,789.203491 
	C497.203369,790.963135 496.571594,793.277222 500.153595,794.702332 
	C508.788666,777.182922 517.418823,759.620972 527.325012,741.908081 
M574.528076,299.957123 
	C575.258850,299.280487 576.066528,298.668640 576.702942,297.912598 
	C577.745544,296.674011 578.371887,295.162750 576.869263,293.965302 
	C575.092468,292.549347 573.589355,293.757080 572.771667,295.259064 
	C571.721558,297.187988 569.735352,298.861816 570.334229,301.425476 
	C571.998596,302.254669 572.930603,301.102905 574.528076,299.957123 
z"/>
</svg>